<svg width="306" height="204" viewBox="0 0 306 204" fill="none" xmlns="http://www.w3.org/2000/svg">
<path fill-rule="evenodd" clip-rule="evenodd" d="M293.967 -40.5545C317.567 -19.0182 301.732 23.2557 275.423 53.7139C251.015 81.9706 259.686 79.1765 223.5 100.092C193.825 117.243 122.803 91.0408 89.4177 100.092C54.8668 109.459 30.3366 210.596 0.917726 203.592C-31.7076 195.824 -78.0218 142.5 -95.6389 121.868C-115.38 98.748 -76.6549 66.4683 -92.1967 42.1472C-63.121 -9.10581 -43.5884 10.3512 -7.40952 -13.3677C15.5692 -23.1799 39.5455 -68.6765 79.4275 -72.6637C120.623 -76.7821 133.083 -54.6007 167.374 -44.8866C204.967 -34.237 269.517 -62.8658 293.967 -40.5545Z" fill="#1B2430"/>
</svg>
