<svg width="174" height="202" viewBox="0 0 174 202" fill="none" xmlns="http://www.w3.org/2000/svg">
<path fill-rule="evenodd" clip-rule="evenodd" d="M67.1556 7.90543C89.7565 -6.75049 122.636 0.903965 143.573 15.15C162.997 28.3664 158.846 57.3985 169.876 77.7987C178.921 94.5279 200.527 104.047 202.025 123.262C203.575 143.147 189.102 161.071 177.735 178.579C165.128 197.994 153.476 218.843 132.746 229.958C109.517 242.413 89.3308 220.962 65.8599 231.003C27.8212 215.935 47.9095 203.743 34.5039 183.454C30.4385 170.367 -3.66682 158.065 0.324225 134.849C4.44671 110.869 25.5359 102.716 40.0987 82.2498C56.0639 59.8128 43.7413 23.0888 67.1556 7.90543Z" fill="#1B2430"/>
</svg>
