<svg width="70" height="70" viewBox="0 0 70 70" fill="none" xmlns="http://www.w3.org/2000/svg">
<rect width="70" height="70" rx="35" fill="white"/>
<path d="M37.08 49.78C33.6933 49.78 30.8933 48.9933 28.68 47.42C26.4933 45.82 25.3067 43.4867 25.12 40.42H34.56C34.6933 42.0467 35.4133 42.86 36.72 42.86C37.2 42.86 37.6 42.7533 37.92 42.54C38.2667 42.3 38.44 41.94 38.44 41.46C38.44 40.7933 38.08 40.26 37.36 39.86C36.64 39.4333 35.52 38.9533 34 38.42C32.1867 37.78 30.68 37.1533 29.48 36.54C28.3067 35.9267 27.2933 35.0333 26.44 33.86C25.5867 32.6867 25.1733 31.18 25.2 29.34C25.2 27.5 25.6667 25.94 26.6 24.66C27.56 23.3533 28.8533 22.3667 30.48 21.7C32.1333 21.0333 33.9867 20.7 36.04 20.7C39.5067 20.7 42.2533 21.5 44.28 23.1C46.3333 24.7 47.4133 26.9533 47.52 29.86H37.96C37.9333 29.06 37.7333 28.4867 37.36 28.14C36.9867 27.7933 36.5333 27.62 36 27.62C35.6267 27.62 35.32 27.7533 35.08 28.02C34.84 28.26 34.72 28.6067 34.72 29.06C34.72 29.7 35.0667 30.2333 35.76 30.66C36.48 31.06 37.6133 31.5533 39.16 32.14C40.9467 32.8067 42.4133 33.4467 43.56 34.06C44.7333 34.6733 45.7467 35.5267 46.6 36.62C47.4533 37.7133 47.88 39.0867 47.88 40.74C47.88 42.4733 47.4533 44.0333 46.6 45.42C45.7467 46.78 44.5067 47.8467 42.88 48.62C41.2533 49.3933 39.32 49.78 37.08 49.78Z" fill="black"/>
</svg>
