<svg width="45" height="45" viewBox="0 0 45 45" fill="none" xmlns="http://www.w3.org/2000/svg">
<path d="M42.8906 14.6953C38.5313 10.7578 34.1719 6.75 29.8125 2.8125C23.4141 12.5156 12.5859 21.1641 2.32031 27.4219C2.03906 28.7578 1.75781 30.0234 1.40625 31.2891C5.90625 35.3672 10.4063 39.5156 14.9063 43.5938C25.5234 37.7578 36.7734 29.4609 43.5938 20.0391C43.3828 18.2812 43.1016 16.5234 42.8906 14.6953Z" fill="#699635"/>
<path d="M15.75 38.3906C11.3203 34.3125 6.89063 30.2344 2.46094 26.2266C13.5 19.9687 22.7812 11.4609 29.6016 1.40625C34.0312 5.48438 38.4609 9.49219 42.8906 13.5703C36.0703 23.625 26.7891 32.1328 15.75 38.3906Z" fill="#83BF4F"/>
<path d="M14.625 35.7187C11.6719 33.0469 8.71875 30.3047 5.76562 27.6328C5.97656 27.4922 6.11719 27.4219 6.32813 27.2812C6.89063 26.9297 7.03125 26.2969 6.53906 25.8047L6.11719 25.3828C15.0469 19.8984 22.7812 12.8672 28.8281 4.71094L29.25 5.13281C29.7422 5.55469 30.4453 5.48437 30.8672 4.99219C31.0078 4.85156 31.0781 4.64063 31.2188 4.5C34.1719 7.17187 37.125 9.91406 40.0781 12.5859C39.9375 12.7266 39.8672 12.9375 39.7266 13.0781C39.3047 13.6406 39.375 14.4141 39.8672 14.9063L40.2891 15.3281C34.2422 23.4141 26.5078 30.4453 17.5781 35.9297L17.1563 35.5078C16.6641 35.0859 15.8203 35.0156 15.1875 35.3672C14.9766 35.5078 14.8359 35.5781 14.625 35.7187ZM7.66406 27.7031C10.0547 29.8828 12.4453 32.0625 14.9063 34.3125C15.8203 34.0312 16.875 34.1016 17.7188 34.5234C25.875 29.3203 32.9766 22.8516 38.6719 15.3281C38.1797 14.5547 38.1094 13.5703 38.4609 12.7266C36.0703 10.5469 33.6797 8.36719 31.2188 6.11719C30.5859 6.67969 29.6719 6.75 28.8984 6.32812C23.2031 13.9219 16.1016 20.3906 7.94531 25.5938C8.36719 26.2969 8.29687 27.1406 7.66406 27.7031Z" fill="#699635"/>
<path d="M14.0625 26.2266C14.8359 25.9453 15.6797 26.0156 16.2422 26.5078C15.8906 26.7891 15.4688 27.0703 15.1172 27.3516C14.9766 27.2109 14.625 27.2109 14.4844 27.3516C14.2734 27.4922 14.2031 27.7031 14.4141 27.8437C14.5547 27.9844 14.9063 27.9844 15.1172 27.8437C15.9609 27.2812 17.1563 27.2109 17.7891 27.8437C18.2812 28.3359 18.3516 29.0391 17.8594 29.6016C18 29.7422 18.1406 29.8125 18.2813 29.9531C17.9297 30.1641 17.5781 30.4453 17.2266 30.6562C17.0859 30.5156 16.9453 30.375 16.8047 30.3047C16.0313 30.5156 15.1875 30.4453 14.6953 29.9531C15.1172 29.6719 15.4688 29.4609 15.8906 29.1797C16.0313 29.3203 16.3828 29.3203 16.5938 29.1797C16.8047 29.0391 16.8047 28.8281 16.6641 28.6875C16.5234 28.5469 16.2422 28.5469 16.0312 28.6875C15.5391 29.0391 14.9063 29.1797 14.3438 29.1094C13.9219 29.0391 13.5703 28.8984 13.2891 28.6875C12.7969 28.1953 12.7969 27.5625 13.2188 27C13.0781 26.9297 13.0078 26.7891 12.8672 26.6484C13.2188 26.4375 13.5703 26.1563 13.9219 25.9453C13.8516 26.0156 13.9922 26.0859 14.0625 26.2266ZM30.375 11.1797C31.0078 10.7578 31.7813 10.7578 32.2734 11.25L31.4297 12.3047C31.2891 12.1641 31.0078 12.1641 30.8672 12.375C30.7266 12.5859 30.7266 12.8672 30.8672 13.0078C31.0078 13.1484 31.2891 13.1484 31.4297 12.9375C32.0625 12.1641 33.1172 12.0234 33.75 12.5859C34.2422 13.0781 34.3828 13.8516 34.1016 14.5547C34.2422 14.6953 34.3828 14.7656 34.5234 14.9063C34.2422 15.2578 34.0313 15.5391 33.75 15.8906C33.6094 15.75 33.4688 15.6094 33.3281 15.5391C32.6953 15.8906 31.9922 15.8906 31.5 15.3984C31.7813 15.0469 32.1328 14.6953 32.4141 14.3438C32.5547 14.4844 32.8359 14.4844 32.9766 14.2734C33.1172 14.0625 33.1172 13.7813 32.9766 13.6406C32.8359 13.5 32.5547 13.5 32.4141 13.7109C32.0625 14.1328 31.5 14.4141 31.0078 14.4141C30.6562 14.4141 30.3047 14.2734 30.0234 14.0625C29.5313 13.5703 29.3906 12.8672 29.6719 12.1641C29.5313 12.0937 29.4609 11.9531 29.3203 11.8125C29.6016 11.5312 29.8828 11.1797 30.0938 10.8281C30.0938 10.9688 30.2344 11.0391 30.375 11.1797ZM28.2656 24.9609C26.0156 27 22.2188 26.9297 20.0391 24.9609C17.8594 22.9219 18 19.7578 20.25 17.7188C22.5 15.6797 26.0156 15.4687 28.1953 17.5078C30.4453 19.4766 30.5156 22.9219 28.2656 24.9609Z" fill="#699635"/>
<path d="M15.3281 17.2266L28.6172 29.3906C30.1641 28.125 31.5703 26.7891 32.9766 25.3828L19.7578 13.2188C18.3516 14.5547 16.875 15.8906 15.3281 17.2266Z" fill="#FFDD7D"/>
<path d="M28.6875 34.7344C30.1641 33.6094 31.6406 32.4141 33.0469 31.2188V25.3125C31.6406 26.7188 30.1641 28.0547 28.6875 29.3203V34.7344Z" fill="#DBB471"/>
<path d="M8.50781 17.3671C9.28125 17.0859 9.91406 16.664 10.5469 16.1718C11.1797 15.6796 11.7422 15.1874 12.375 14.6249C13.0078 14.1327 13.6406 13.5702 14.3437 13.2187C15.0469 12.7968 15.9609 12.5859 16.7344 12.7265C15.9609 12.8671 15.2578 13.2187 14.625 13.7109C13.9922 14.1327 13.4297 14.6952 12.7969 15.1874C12.1641 15.6796 11.5312 16.2421 10.8281 16.664C10.125 17.0859 9.28125 17.3671 8.50781 17.3671Z" fill="#8D9998"/>
<path d="M27.9843 23.2736C27.9843 23.2736 31.4296 24.2579 39.4452 22.1486C47.4608 20.0392 43.664 43.1017 29.039 43.1017C27.4218 43.1017 27.3515 41.0626 31.8515 37.4064C31.8515 37.4064 25.5233 38.8829 28.2655 34.172C28.2655 34.172 23.7655 34.9454 25.8046 31.3595C25.8046 31.3595 26.7187 28.6876 25.8749 25.6642C25.9452 25.6642 26.4374 24.1173 27.9843 23.2736Z" fill="#E8E8E8"/>
<path d="M43.2424 24.3984C43.383 30.5859 38.4611 40.8516 28.6877 40.8516H28.5471C27.633 42.3281 28.0549 43.1719 29.0393 43.1719C40.1486 43.1016 45.0002 29.8828 43.2424 24.3984Z" fill="#D1D1D1"/>
<path d="M38.1798 27.7734C36.0704 35.3672 27.6329 36 27.6329 36C27.2813 37.6172 27.9845 38.3203 28.8985 38.3203C31.9923 38.3906 37.7579 33.2578 38.1798 27.7734ZM32.2735 27.7734C27.2813 34.8047 25.5235 32.2031 25.5235 32.2031C24.2579 35.0156 27.5626 35.0156 28.1251 34.3828C29.7423 32.625 32.3438 28.9688 32.2735 27.7734Z" fill="#D1D1D1"/>
<path d="M28.4766 41.0625C29.3203 39.9375 30.375 39.0234 31.4297 38.1094C32.4844 37.1953 33.5391 36.2813 34.5938 35.2969C35.5781 34.3125 36.5625 33.1875 37.2656 31.9219C37.9688 30.6563 38.3203 29.1797 38.1797 27.7734C38.0391 29.1797 37.5469 30.5156 36.7734 31.6406C36 32.7656 35.0859 33.8203 34.1016 34.8047C33.1172 35.7891 32.0625 36.7031 31.0781 37.7578C30.0234 38.6719 29.1094 39.7969 28.4766 41.0625ZM27.6328 36C27.9141 35.2266 28.3359 34.5937 28.8281 33.9609C29.3203 33.3281 29.8125 32.7656 30.375 32.1328C30.8672 31.5 31.4297 30.8672 31.7813 30.1641C32.2031 29.4609 32.4141 28.5469 32.2734 27.7734C32.1328 28.5469 31.7813 29.25 31.2891 29.8828C30.8672 30.5156 30.3047 31.0781 29.8125 31.7109C29.3203 32.3437 28.7578 32.9766 28.3359 33.6797C27.9141 34.3828 27.6328 35.2266 27.6328 36Z" fill="#8D9998"/>
<path d="M21.2344 17.0156C21.2344 17.0156 20.25 13.5703 22.3594 5.5547C24.4687 -2.46092 1.40625 1.33595 1.40625 15.961C1.40625 17.5781 3.44531 17.6485 7.10156 13.1485C7.10156 13.1485 5.625 19.4766 10.3359 16.7344C10.3359 16.7344 9.5625 21.2344 13.1484 19.1953C13.1484 19.1953 15.8203 18.2813 18.8437 19.125C18.8437 19.0547 20.3906 18.5625 21.2344 17.0156Z" fill="#E8E8E8"/>
<path d="M20.1094 1.75771C13.9219 1.61708 3.65625 6.53896 3.65625 16.3124V16.453C2.17969 17.2968 1.40625 16.9452 1.40625 15.9608C1.40625 4.85146 14.625 -0.000103915 20.1094 1.75771Z" fill="#D1D1D1"/>
<path d="M16.7344 6.82031C9.14061 8.92969 8.50779 17.3672 8.50779 17.3672C6.89061 17.7188 6.18748 17.0156 6.18748 16.1016C6.11717 13.0078 11.25 7.24219 16.7344 6.82031ZM16.7344 12.7266C9.70311 17.7188 12.3047 19.4766 12.3047 19.4766C9.49217 20.7422 9.49217 17.4375 10.125 16.875C11.8828 15.2578 15.539 12.6563 16.7344 12.7266Z" fill="#D1D1D1"/>
<path d="M3.44531 16.5235C4.57031 15.6797 5.48438 14.625 6.39844 13.5704C7.3125 12.5157 8.22656 11.461 9.21094 10.4063C10.1953 9.42191 11.3203 8.43754 12.5859 7.73441C13.8516 7.03129 15.3281 6.67973 16.7344 6.82035C15.3281 6.96098 13.9922 7.45316 12.8672 8.2266C11.7422 9.00004 10.6875 9.9141 9.70312 10.8985C8.71875 11.8829 7.80469 12.9375 6.75 13.9219C5.76563 14.9766 4.71094 15.8907 3.44531 16.5235Z" fill="#8D9998"/>
<path d="M8.50781 17.3671C9.28125 17.0859 9.91406 16.664 10.5469 16.1718C11.1797 15.6796 11.7422 15.1874 12.375 14.6249C13.0078 14.1327 13.6406 13.5702 14.3437 13.2187C15.0469 12.7968 15.9609 12.5859 16.7344 12.7265C15.9609 12.8671 15.2578 13.2187 14.625 13.7109C13.9922 14.1327 13.4297 14.6952 12.7969 15.1874C12.1641 15.6796 11.5312 16.2421 10.8281 16.664C10.125 17.0859 9.28125 17.3671 8.50781 17.3671Z" fill="#8D9998"/>
</svg>
