<svg width="26" height="26" viewBox="0 0 26 26" fill="none" xmlns="http://www.w3.org/2000/svg">
<g clip-path="url(#clip0_773_1581)">
<path d="M0.557347 12.8445C0.556738 15.029 1.13187 17.162 2.22549 19.0421L0.452759 25.4657L7.07657 23.742C8.90864 24.7318 10.9613 25.2505 13.0473 25.2506H13.0527C19.9388 25.2506 25.5443 19.6895 25.5472 12.8543C25.5486 9.54208 24.25 6.42752 21.8908 4.0843C19.532 1.74127 16.3948 0.450242 13.0522 0.44873C6.16533 0.44873 0.560292 6.00951 0.557449 12.8445" fill="url(#paint0_linear_773_1581)"/>
<path d="M0.111092 12.8404C0.110381 15.1035 0.70613 17.3128 1.83873 19.2602L0.00244141 25.914L6.86376 24.1286C8.75428 25.1516 10.8828 25.6909 13.0487 25.6917H13.0543C20.1874 25.6917 25.9942 19.9306 25.9973 12.8507C25.9985 9.41946 24.6533 6.19294 22.2098 3.76577C19.7659 1.3389 16.5166 0.00141085 13.0543 0C5.91993 0 0.113935 5.76031 0.111092 12.8404ZM4.19726 18.9248L3.94107 18.5212C2.86411 16.8217 2.29567 14.8578 2.29649 12.8412C2.29872 6.95641 7.12442 2.16868 13.0584 2.16868C15.932 2.16989 18.6326 3.28164 20.6639 5.29876C22.695 7.31608 23.8127 9.99771 23.812 12.8498C23.8094 18.7346 18.9836 23.5229 13.0543 23.5229H13.05C11.1194 23.5219 9.22594 23.0074 7.57466 22.035L7.18169 21.8037L3.11004 22.8632L4.19726 18.9248Z" fill="url(#paint1_linear_773_1581)"/>
<path d="M9.81954 7.47219C9.57726 6.93778 9.32229 6.927 9.09189 6.91762C8.90322 6.90956 8.68755 6.91017 8.47208 6.91017C8.2564 6.91017 7.90598 6.99069 7.60978 7.31166C7.31327 7.63293 6.47778 8.4093 6.47778 9.98834C6.47778 11.5674 7.63669 13.0935 7.79824 13.3079C7.96 13.5218 10.0355 16.8659 13.3227 18.1524C16.0546 19.2216 16.6105 19.0089 17.2034 18.9553C17.7964 18.9019 19.1169 18.1792 19.3863 17.4297C19.6559 16.6803 19.6559 16.038 19.575 15.9037C19.4942 15.77 19.2785 15.6897 18.9551 15.5293C18.6317 15.3688 17.0416 14.5923 16.7452 14.4851C16.4487 14.3781 16.2332 14.3247 16.0175 14.6461C15.8018 14.9669 15.1825 15.6897 14.9937 15.9037C14.8052 16.1183 14.6164 16.145 14.2931 15.9845C13.9695 15.8234 12.928 15.4849 11.6923 14.3916C10.7309 13.5409 10.0818 12.4903 9.89316 12.1689C9.7045 11.8481 9.87295 11.6741 10.0351 11.5142C10.1804 11.3704 10.3586 11.1394 10.5205 10.9521C10.6817 10.7646 10.7356 10.6309 10.8434 10.4168C10.9513 10.2026 10.8973 10.0152 10.8166 9.85462C10.7356 9.69408 10.1071 8.10677 9.81954 7.47219Z" fill="white"/>
</g>
<defs>
<linearGradient id="paint0_linear_773_1581" x1="13" y1="25.4657" x2="13" y2="0.44873" gradientUnits="userSpaceOnUse">
<stop stop-color="#1FAF38"/>
<stop offset="1" stop-color="#60D669"/>
</linearGradient>
<linearGradient id="paint1_linear_773_1581" x1="12.9999" y1="25.914" x2="12.9999" y2="0" gradientUnits="userSpaceOnUse">
<stop stop-color="#F9F9F9"/>
<stop offset="1" stop-color="white"/>
</linearGradient>
<clipPath id="clip0_773_1581">
<rect width="26" height="26" fill="white"/>
</clipPath>
</defs>
</svg>
