<svg width="45" height="45" viewBox="0 0 45 45" fill="none" xmlns="http://www.w3.org/2000/svg">
<g clip-path="url(#clip0_764_1498)">
<path d="M1.19531 16.9453L0.421875 7.94531C0.421875 7.94531 6.53906 5.41406 8.64844 5.0625C12.0234 4.5 18.4922 3.65625 22.5 3.65625C26.5078 3.65625 32.9063 4.5 36.3516 5.0625C38.5313 5.41406 44.5781 7.94531 44.5781 7.94531L43.8047 16.9453L35.2969 17.5781C35.1563 27.2109 36.6328 39.0234 37.125 42.9609C37.125 42.9609 30.8672 43.2422 22.5 43.3125C14.1328 43.2422 7.875 42.9609 7.875 42.9609C8.36719 39.0234 9.84375 27.2109 9.70312 17.5781L1.19531 16.9453Z" fill="#FF99B6"/>
<path d="M22.5 8.71875H23.3438V43.3125H22.5V8.71875Z" fill="#FF78A5"/>
<path d="M18.4922 3.9375H26.5781V8.85938H18.4922V3.9375Z" fill="#FF78A5"/>
<path d="M15.3281 0H29.6719V4.64062H15.3281V0Z" fill="#FF99B6"/>
<path d="M29.6719 0L32.4141 4.35937L27.2109 12.4453L22.5 8.85938L29.6719 0Z" fill="#FFD2DF"/>
<path d="M15.3281 0L12.5859 4.35937L17.7891 12.4453L22.5 8.85938L15.3281 0Z" fill="#FFD2DF"/>
<path d="M20.3203 16.1719C21.33 16.1719 22.1484 15.3534 22.1484 14.3438C22.1484 13.3341 21.33 12.5156 20.3203 12.5156C19.3107 12.5156 18.4922 13.3341 18.4922 14.3438C18.4922 15.3534 19.3107 16.1719 20.3203 16.1719Z" fill="#FF78A5"/>
<path d="M20.3203 15.75C21.2911 15.75 22.0781 15.026 22.0781 14.1328C22.0781 13.2397 21.2911 12.5156 20.3203 12.5156C19.3495 12.5156 18.5625 13.2397 18.5625 14.1328C18.5625 15.026 19.3495 15.75 20.3203 15.75Z" fill="#FFF3F7"/>
<path d="M20.3203 22.1484C21.33 22.1484 22.1484 21.33 22.1484 20.3203C22.1484 19.3107 21.33 18.4922 20.3203 18.4922C19.3107 18.4922 18.4922 19.3107 18.4922 20.3203C18.4922 21.33 19.3107 22.1484 20.3203 22.1484Z" fill="#FF78A5"/>
<path d="M20.3203 21.7266C21.2911 21.7266 22.0781 21.0025 22.0781 20.1094C22.0781 19.2162 21.2911 18.4922 20.3203 18.4922C19.3495 18.4922 18.5625 19.2162 18.5625 20.1094C18.5625 21.0025 19.3495 21.7266 20.3203 21.7266Z" fill="#FFF3F7"/>
<path d="M20.3203 28.125C21.33 28.125 22.1484 27.3065 22.1484 26.2969C22.1484 25.2872 21.33 24.4688 20.3203 24.4688C19.3107 24.4688 18.4922 25.2872 18.4922 26.2969C18.4922 27.3065 19.3107 28.125 20.3203 28.125Z" fill="#FF78A5"/>
<path d="M20.3203 27.7031C21.2911 27.7031 22.0781 26.9791 22.0781 26.0859C22.0781 25.1928 21.2911 24.4688 20.3203 24.4688C19.3495 24.4688 18.5625 25.1928 18.5625 26.0859C18.5625 26.9791 19.3495 27.7031 20.3203 27.7031Z" fill="#FFF3F7"/>
<path d="M20.3203 34.1016C21.33 34.1016 22.1484 33.2831 22.1484 32.2734C22.1484 31.2638 21.33 30.4453 20.3203 30.4453C19.3107 30.4453 18.4922 31.2638 18.4922 32.2734C18.4922 33.2831 19.3107 34.1016 20.3203 34.1016Z" fill="#FF78A5"/>
<path d="M20.3203 33.6797C21.2911 33.6797 22.0781 32.9556 22.0781 32.0625C22.0781 31.1694 21.2911 30.4453 20.3203 30.4453C19.3495 30.4453 18.5625 31.1694 18.5625 32.0625C18.5625 32.9556 19.3495 33.6797 20.3203 33.6797Z" fill="#FFF3F7"/>
<path d="M20.3203 40.0781C21.33 40.0781 22.1484 39.2596 22.1484 38.25C22.1484 37.2404 21.33 36.4219 20.3203 36.4219C19.3107 36.4219 18.4922 37.2404 18.4922 38.25C18.4922 39.2596 19.3107 40.0781 20.3203 40.0781Z" fill="#FF78A5"/>
<path d="M20.3203 39.6563C21.2911 39.6563 22.0781 38.9322 22.0781 38.0391C22.0781 37.1459 21.2911 36.4219 20.3203 36.4219C19.3495 36.4219 18.5625 37.1459 18.5625 38.0391C18.5625 38.9322 19.3495 39.6563 20.3203 39.6563Z" fill="#FFF3F7"/>
<path d="M45 7.80469L42.6797 7.03125L41.8359 17.2969L44.2969 17.0859L45 7.80469ZM0 7.80469L2.32031 7.03125L3.16406 17.2969L0.703125 17.0859L0 7.80469ZM22.5 41.5547C30.0234 41.4141 36 40.4297 36.9844 39.7969C37.0547 41.1328 37.0547 42.2578 37.125 43.1719C37.125 43.1719 30.8672 44.9297 22.5 45.0703C14.1328 44.9297 7.875 43.1719 7.875 43.1719C7.94531 42.3281 8.01562 41.1328 8.01562 39.7969C9 40.3594 14.9766 41.4141 22.5 41.5547Z" fill="#FFD2DF"/>
<path d="M22.5 41.5547H23.3438V45H22.5V41.5547Z" fill="#FF99B6"/>
</g>
<defs>
<clipPath id="clip0_764_1498">
<rect width="45" height="45" fill="white"/>
</clipPath>
</defs>
</svg>
