<svg width="45" height="45" viewBox="0 0 45 45" fill="none" xmlns="http://www.w3.org/2000/svg">
<g clip-path="url(#clip0_762_1255)">
<path d="M7.3125 24.0469H6.46875V8.15625C6.46875 7.03125 7.03125 4.78125 9.14063 4.78125V5.69531C7.3125 5.69531 7.3125 8.01563 7.3125 8.15625V24.0469Z" fill="#666666"/>
<path d="M15.1874 4.92179C14.8359 4.57022 13.4296 4.07804 13.4296 4.07804L12.3046 0.492099C12.164 -8.85222e-05 10.9687 -0.070401 9.56243 0.351474C8.15618 0.773349 7.17181 1.54679 7.31243 2.03897L8.50775 5.76554C8.50775 5.76554 7.59368 7.38272 7.52337 7.94522C7.31243 9.07022 7.94525 12.3749 7.94525 12.3749L17.789 9.42179C17.7187 9.35147 16.1718 5.76554 15.1874 4.92179Z" fill="#94989B"/>
<path d="M8.50781 5.69531C8.64844 5.27344 9 4.85156 9.42187 4.57031C9.84375 4.28906 10.2656 4.07813 10.6875 3.9375C11.1094 3.79688 11.6016 3.65625 12.0938 3.65625C12.5859 3.65625 13.0781 3.72656 13.5 4.00781C13.0781 3.79687 12.5859 3.72656 12.1641 3.79688C11.6719 3.79688 11.25 3.9375 10.8281 4.07813C10.4062 4.21875 9.98438 4.42969 9.5625 4.64063C9.07031 4.92188 8.71875 5.27344 8.50781 5.69531Z" fill="#3E4347"/>
<path d="M17.7188 9.35163C18.0001 10.336 15.961 11.8126 13.2891 12.586C10.547 13.4298 8.15633 13.2891 7.94539 12.3048C7.66414 11.3204 9.7032 9.84382 12.3751 9.07038C15.047 8.22663 17.5079 8.36725 17.7188 9.35163Z" fill="#FFE62E"/>
<path d="M16.1016 8.50774C15.1172 8.43743 13.7813 8.57806 12.375 8.99993C10.8984 9.42181 9.5625 10.1249 8.78906 10.7577C9.77344 10.8281 11.1094 10.6874 12.5156 10.2656C14.0625 9.84368 15.3281 9.21087 16.1016 8.50774Z" fill="white"/>
<path d="M41.6953 28.6172C41.6953 29.3906 41.0625 30.0234 40.2891 30.0234H4.71094C3.9375 30.0234 3.30469 29.3906 3.30469 28.6172V19.4766C3.30469 18.7031 3.9375 18.0703 4.71094 18.0703H40.3594C41.1328 18.0703 41.7656 18.7031 41.7656 19.4766V28.6172H41.6953Z" fill="#42ADE2"/>
<path opacity="0.5" d="M41.6953 28.6172C41.6953 29.3906 41.0625 30.0234 40.2891 30.0234H4.71094C3.9375 30.0234 3.30469 29.3906 3.30469 28.6172V19.4766C3.30469 18.7031 3.9375 18.0703 4.71094 18.0703H40.3594C41.1328 18.0703 41.7656 18.7031 41.7656 19.4766V28.6172H41.6953Z" fill="#428BC1"/>
<path d="M31.6406 30.0234H3.30469V19.1953C3.30469 19.1953 8.92969 25.6641 31.6406 30.0234Z" fill="#428BC1"/>
<path d="M43.8047 21.4453C43.8047 20.1797 42.8906 19.1953 41.6953 19.1953C40.5703 19.1953 39.6562 20.1797 39.6562 21.4453V30.1641C39.6562 31.4297 40.5703 32.4141 41.6953 32.4141C42.8203 32.4141 43.8047 31.4297 43.8047 30.1641V21.4453Z" fill="#42ADE2"/>
<path d="M39.6562 21.4453V30.1641C39.6562 31.4297 40.5703 32.4141 41.6953 32.4141C42.8203 32.4141 43.8047 31.4297 43.8047 30.1641C43.8047 30.1641 40.7109 31.0781 39.6562 21.4453Z" fill="#428BC1"/>
<path d="M4.28906 42.0469H7.03125V45H4.28906V42.0469Z" fill="#3E4347"/>
<path d="M31.6406 42.0469H2.8125C1.26562 42.0469 0 40.7109 0 39.0234C0 37.3359 1.26562 36 2.8125 36H31.6406V42.0469ZM31.6406 36H2.8125C1.26562 36 0 34.6641 0 32.9766C0 31.2891 1.26562 29.9531 2.8125 29.9531H31.6406V36Z" fill="#428BC1"/>
<path d="M37.9688 42.0469H40.7109V45H37.9688V42.0469Z" fill="#3E4347"/>
<path d="M13.3594 36H42.1875C43.7344 36 45 37.3359 45 39.0234C45 40.7109 43.7344 42.0469 42.1875 42.0469H13.3594V36Z" fill="#428BC1"/>
<path d="M13.3594 30.0234H42.1875C43.7344 30.0234 45 31.3594 45 33.0469C45 34.7344 43.7344 36.0703 42.1875 36.0703H13.3594V30.0234Z" fill="#428BC1"/>
<path d="M5.34375 21.4453C5.34375 20.1797 4.42969 19.1953 3.30469 19.1953C2.17969 19.1953 1.26562 20.1797 1.26562 21.4453V30.1641C1.26562 31.4297 2.17969 32.4141 3.30469 32.4141C4.42969 32.4141 5.34375 31.4297 5.34375 30.1641V21.4453Z" fill="#42ADE2"/>
<path d="M1.19531 21.4453V30.1641C1.19531 31.4297 2.10937 32.4141 3.23437 32.4141C4.35937 32.4141 5.27344 31.4297 5.27344 30.1641C5.34375 30.1641 2.25 31.0781 1.19531 21.4453Z" fill="#428BC1"/>
<path d="M0.210938 34.1719C0.0703125 33.8203 0 33.3984 0 33.0469C0 31.3594 1.26562 30.0234 2.8125 30.0234H31.6406C31.6406 30.0234 4.07813 30.6562 0.210938 34.1719ZM0.210938 40.2188C0.0703125 39.8672 0 39.4453 0 39.0234C0 37.3359 1.26562 36 2.8125 36H31.6406C31.6406 36 4.07813 36.6328 0.210938 40.2188Z" fill="#42ADE2"/>
<path d="M44.7891 31.8516C44.9297 32.2031 45 32.625 45 33.0469C45 34.7344 43.7344 36.0703 42.1875 36.0703H13.3594C13.3594 36 40.9219 35.3672 44.7891 31.8516ZM44.7891 37.8281C44.9297 38.1797 45 38.6016 45 39.0234C45 40.7109 43.7344 42.0469 42.1875 42.0469H13.3594C13.3594 42.0469 40.9219 41.4141 44.7891 37.8281Z" fill="#42ADE2"/>
<path d="M42.4688 18.4219C42.4688 18.4219 40.4297 20.1797 40.0781 21.0937C39.375 23.0625 39.8672 27.3516 40.0781 29.4609C40.1484 29.8125 40.4297 30.7969 40.4297 30.7969C40.4297 30.7969 38.0391 30.1641 37.1953 30.0234C35.5781 29.8125 32.4141 30.1641 30.7969 30.0234C30.0938 29.9531 27.9844 29.4609 27.9844 29.4609C27.9844 29.4609 29.8125 28.6172 30.1641 28.0547C31.2891 26.2969 31.5 21.7969 31.6406 19.6875V18.4922C31.6406 18.4922 33.1875 18.9844 33.75 19.0547C35.2969 19.1953 38.5313 18.9141 40.0781 18.7734C40.6406 18.7734 42.4688 18.4219 42.4688 18.4219Z" fill="#C7E755"/>
<path d="M33.3281 25.5938C33.6094 24.8906 34.0312 24.1875 34.4531 23.625C34.4531 23.4844 34.3828 23.3438 34.3125 23.2031C34.2422 22.9922 34.1719 22.7813 34.0313 22.6406C33.8203 22.2891 33.3984 22.0078 33.0469 21.7969C33.4688 21.8672 33.9609 22.0078 34.3125 22.3594C34.5234 22.5 34.6641 22.7109 34.8047 22.9219C34.8047 22.9922 34.875 23.0625 34.875 23.0625C35.4375 22.4297 36 21.9375 36.7031 21.4453C37.4063 20.9531 38.25 20.6016 39.0937 20.3906C37.6875 21.375 36.3516 22.4297 35.2266 23.7656C34.6641 24.3984 34.1719 25.1016 33.75 25.875C33.3281 26.6484 32.9766 27.4219 32.6953 28.3359C32.8359 27.3516 33.0469 26.4375 33.3281 25.5938Z" fill="#9DB730"/>
</g>
<defs>
<clipPath id="clip0_762_1255">
<rect width="45" height="45" fill="white"/>
</clipPath>
</defs>
</svg>
