<svg width="45" height="45" viewBox="0 0 45 45" fill="none" xmlns="http://www.w3.org/2000/svg">
<g clip-path="url(#clip0_764_1526)">
<path d="M42.5 36.37C41.9788 35.1663 41.38 33.86 40 33.86H38.75C40.13 33.86 41.25 32.7362 41.25 31.35V10.01C41.2507 9.68104 41.1865 9.35517 41.0612 9.051C40.936 8.74682 40.752 8.47031 40.5198 8.23723C40.2877 8.00416 40.0119 7.81909 39.7082 7.69259C39.4046 7.5661 39.079 7.50066 38.75 7.5H6.25C4.87 7.5 3.75 8.62375 3.75 10.01V31.35C3.75 32.7362 4.87 33.86 6.25 33.86H5C3.62 33.86 2.91625 35.115 2.5 36.37L0 42.4888C0 43.8763 1.12 45 2.5 45H42.5C43.88 45 45 43.8763 45 42.49L42.5 36.37Z" fill="#CCD6DD"/>
<path d="M0.0100098 42.5938L0.0175098 42.665L0.23001 43.53C0.427563 43.9669 0.746599 44.3378 1.14908 44.5984C1.55156 44.8591 2.02051 44.9985 2.50001 45H42.5C43.1454 44.9979 43.765 44.7462 44.229 44.2978C44.6931 43.8493 44.9658 43.2387 44.99 42.5938H0.0100098Z" fill="#9AAAB4"/>
<path d="M38.75 30.0937C38.75 30.7875 38.1912 31.3487 37.5 31.3487H7.5C6.81 31.3487 6.25 30.7875 6.25 30.0937V11.2662C6.25 10.5725 6.81 10.0112 7.5 10.0112H37.5C38.1912 10.0112 38.75 10.5737 38.75 11.2662V30.0937Z" fill="#5DADEC"/>
<path d="M41.1325 38.8026L40.1825 36.0838C39.8837 35.5088 39.3887 35.0376 38.6975 35.0376H6.38745C5.69745 35.0376 5.25495 35.5476 4.94245 36.3326L4.08245 38.8038C3.8087 39.5488 4.64245 40.0588 5.33245 40.0588H14.805C14.805 40.0588 15.9762 40.0001 16.1837 39.2988C16.4237 38.4888 16.7025 37.2688 16.7625 37.0538C16.855 36.7238 17.2475 36.3901 17.8325 36.3901H28.555C29.18 36.3901 29.4875 36.7063 29.5687 37.0976C29.6212 37.3526 29.9587 38.5238 30.1162 39.3251C30.255 40.0388 31.6425 40.0576 31.6425 40.0576H39.885C40.5737 40.0576 41.4062 39.4688 41.1325 38.8026Z" fill="#AEBBC1"/>
<path d="M27.9689 41.3912H18.2426C17.7739 41.3912 17.5701 40.9625 17.6376 40.5475C17.7051 40.1337 18.0864 38.3063 18.1164 38.0938C18.1451 37.88 18.4589 37.625 18.7714 37.625H27.5401C27.9114 37.625 28.1526 37.8288 28.2276 38.2363C28.3014 38.645 28.6051 40.2875 28.6289 40.6625C28.6526 41.0375 28.4176 41.3912 27.9689 41.3912Z" fill="#9AAAB4"/>
</g>
<defs>
<clipPath id="clip0_764_1526">
<rect width="45" height="45" fill="white"/>
</clipPath>
</defs>
</svg>
