<svg width="45" height="45" viewBox="0 0 45 45" fill="none" xmlns="http://www.w3.org/2000/svg">
<path fill-rule="evenodd" clip-rule="evenodd" d="M6.5396 11.3119L7.68823 12.4611L7.88735 12.6596L10.6712 15.444L10.6729 15.4418L12.4475 17.217L16.2095 16.209L17.217 12.4476L15.4423 10.6723L15.444 10.6706L12.6596 7.88626L12.461 7.6877L11.3124 6.53908C12.9234 5.87644 14.6953 5.70866 16.4021 6.05712C18.1089 6.40559 19.6732 7.25451 20.8955 8.49563C22.1179 9.73675 22.9429 11.3138 23.2653 13.0257C23.5877 14.7376 23.393 16.5067 22.7059 18.1075L36.0394 31.441C36.6638 32.0756 37.0121 32.9313 37.0085 33.8217C37.0049 34.712 36.6496 35.5648 36.02 36.1944C35.3904 36.824 34.5376 37.1793 33.6473 37.1829C32.7569 37.1865 31.9012 36.8382 31.2665 36.2138L22.0095 26.9567C22.1429 26.1527 22.0235 25.3271 21.6678 24.5938C21.3121 23.8606 20.7377 23.2557 20.0237 22.8627C19.3097 22.4698 18.4914 22.308 17.6816 22.3998C16.8717 22.4916 16.1104 22.8324 15.5025 23.3753C13.997 23.5224 12.4791 23.2777 11.0962 22.6648C9.71329 22.052 8.51243 21.0918 7.61028 19.8777C6.70813 18.6635 6.13538 17.2367 5.94767 15.7357C5.75996 14.2348 5.96368 12.7108 6.53904 11.3119" fill="#828282"/>
<path d="M20.9087 23.5284L27.2728 17.1648" stroke="#E0E0E0" stroke-width="2.25" stroke-linecap="square" stroke-linejoin="round"/>
<path d="M35.2276 6.02783L38.4096 9.20989L32.149 17.0613L27.2727 17.1648L27.3762 12.2879L35.2276 6.02783Z" fill="#E0E0E0"/>
<path d="M15.3404 23.5288C15.7061 23.1632 16.1402 22.8731 16.6179 22.6752C17.0957 22.4773 17.6077 22.3755 18.1248 22.3755C18.6419 22.3755 19.154 22.4773 19.6317 22.6752C20.1094 22.8731 20.5435 23.1632 20.9092 23.5288C21.2748 23.8945 21.5649 24.3286 21.7628 24.8063C21.9607 25.284 22.0625 25.7961 22.0625 26.3132C22.0625 26.8303 21.9607 27.3423 21.7628 27.8201C21.5649 28.2978 21.2748 28.7319 20.9092 29.0976L11.7601 38.2449C11.6556 38.3495 11.5316 38.4324 11.3951 38.4889C11.2586 38.5455 11.1122 38.5746 10.9645 38.5746C10.8167 38.5746 10.6704 38.5455 10.5338 38.4889C10.3973 38.4324 10.2733 38.3495 10.1688 38.2449L6.19193 34.2669C5.98103 34.056 5.86255 33.7699 5.86255 33.4716C5.86255 33.1733 5.98103 32.8872 6.19193 32.6762L15.3404 23.5288Z" fill="#F2C94C"/>
<path fill-rule="evenodd" clip-rule="evenodd" d="M6.53946 11.312L7.68808 12.4606L7.88664 12.6597L10.671 15.4435L10.6727 15.4418L12.4474 17.2165L16.2094 16.2091L17.2168 12.4471L15.4421 10.6718L15.4438 10.6701L12.6595 7.88633L12.4609 7.68777L11.3123 6.53914C12.9129 5.88079 14.6725 5.71077 16.3695 6.05049C18.0665 6.39022 19.6251 7.2245 20.8489 8.44827C21.971 9.57056 22.7675 10.9763 23.1535 12.5157C23.5395 14.0551 23.5004 15.6704 23.0405 17.1894C22.5806 18.7083 21.7171 20.074 20.5421 21.1407C19.367 22.2075 17.9245 22.9353 16.3683 23.2467C14.8121 23.5581 13.2006 23.4413 11.7056 22.9087C10.2105 22.3762 8.88806 21.4479 7.87915 20.2228C6.87023 18.9978 6.21271 17.5218 5.97667 15.9524C5.74064 14.3831 5.93496 12.779 6.53889 11.3114" fill="#EB5757"/>
</svg>
